<?xml version="1.0" encoding="UTF-8" standalone="no"?>
<!-- Created with Inkscape (http://www.inkscape.org/) -->

<svg
   xmlns:osb="http://www.openswatchbook.org/uri/2009/osb"
   xmlns:dc="http://purl.org/dc/elements/1.1/"
   xmlns:cc="http://creativecommons.org/ns#"
   xmlns:rdf="http://www.w3.org/1999/02/22-rdf-syntax-ns#"
   xmlns:svg="http://www.w3.org/2000/svg"
   xmlns="http://www.w3.org/2000/svg"
   xmlns:sodipodi="http://sodipodi.sourceforge.net/DTD/sodipodi-0.dtd"
   xmlns:inkscape="http://www.inkscape.org/namespaces/inkscape"
   inkscape:export-ydpi="90.000000"
   inkscape:export-xdpi="90.000000"
   inkscape:export-filename="/home/lapo/Scrivania/sync.png"
   width="288"
   height="300"
   id="svg11300"
   sodipodi:version="0.32"
   inkscape:version="0.91 r13725"
   sodipodi:docname="org.gnome.Games.svg"
   inkscape:output_extension="org.inkscape.output.svg.inkscape"
   version="1.0"
   style="display:inline;enable-background:new">
  <title
     id="title850">Games</title>
  <defs
     id="defs3">
    <linearGradient
       osb:paint="solid"
       id="linearGradient4925">
      <stop
         id="stop4927"
         offset="0"
         style="stop-color:#4a5063;stop-opacity:1;" />
    </linearGradient>
    <linearGradient
       osb:paint="solid"
       id="linearGradient5872">
      <stop
         id="stop5874"
         offset="0"
         style="stop-color:#ffffff;stop-opacity:1;" />
    </linearGradient>
    <linearGradient
       osb:paint="gradient"
       id="linearGradient4315">
      <stop
         id="stop4317"
         offset="0"
         style="stop-color:#c20809;stop-opacity:1;" />
      <stop
         style="stop-color:#c20809;stop-opacity:1;"
         offset="0.77806985"
         id="stop4327" />
      <stop
         id="stop4319"
         offset="1"
         style="stop-color:#d22f27;stop-opacity:1;" />
    </linearGradient>
  </defs>
  <sodipodi:namedview
     stroke="#ef2929"
     fill="#f57900"
     id="base"
     pagecolor="#494949"
     bordercolor="#666666"
     borderopacity="0.25490196"
     inkscape:pageopacity="0"
     inkscape:pageshadow="2"
     inkscape:zoom="1"
     inkscape:cx="25.648537"
     inkscape:cy="72.590353"
     inkscape:current-layer="layer3"
     showgrid="false"
     inkscape:grid-bbox="true"
     inkscape:document-units="px"
     inkscape:showpageshadow="false"
     inkscape:window-width="1920"
     inkscape:window-height="1016"
     inkscape:window-x="0"
     inkscape:window-y="27"
     width="400px"
     height="300px"
     inkscape:snap-nodes="false"
     inkscape:snap-bbox="true"
     objecttolerance="7"
     gridtolerance="12"
     guidetolerance="13"
     inkscape:snap-to-guides="false"
     inkscape:bbox-nodes="true"
     inkscape:window-maximized="1"
     showguides="false"
     inkscape:guide-bbox="true">
    <inkscape:grid
       type="xygrid"
       id="grid5883"
       spacingx="0.5px"
       spacingy="0.5px"
       enabled="false"
       visible="true"
       empspacing="2"
       snapvisiblegridlinesonly="true" />
    <inkscape:grid
       type="xygrid"
       id="grid8013"
       visible="true"
       enabled="true"
       empspacing="16"
       snapvisiblegridlinesonly="true"
       spacingx="8"
       spacingy="8" />
  </sodipodi:namedview>
  <metadata
     id="metadata4">
    <rdf:RDF>
      <cc:Work
         rdf:about="">
        <dc:format>image/svg+xml</dc:format>
        <dc:type
           rdf:resource="http://purl.org/dc/dcmitype/StillImage" />
        <dc:creator>
          <cc:Agent>
            <dc:title>Adrien Plazas</dc:title>
          </cc:Agent>
        </dc:creator>
        <dc:source />
        <cc:license
           rdf:resource="https://www.gnu.org/licenses/gpl-3.0.html" />
        <dc:title>Games</dc:title>
        <dc:subject>
          <rdf:Bag>
            <rdf:li>games</rdf:li>
            <rdf:li>app</rdf:li>
          </rdf:Bag>
        </dc:subject>
        <dc:date />
        <dc:rights>
          <cc:Agent>
            <dc:title />
          </cc:Agent>
        </dc:rights>
        <dc:publisher>
          <cc:Agent>
            <dc:title />
          </cc:Agent>
        </dc:publisher>
        <dc:identifier />
        <dc:relation />
        <dc:language />
        <dc:coverage />
        <dc:description />
        <dc:contributor>
          <cc:Agent>
            <dc:title />
          </cc:Agent>
        </dc:contributor>
      </cc:Work>
    </rdf:RDF>
  </metadata>
  <g
     id="layer1"
     inkscape:label="artwork"
     inkscape:groupmode="layer"
     style="display:inline">
    <g
       inkscape:groupmode="layer"
       id="layer6"
       inkscape:label="baseplate"
       style="display:none">
      <text
         xml:space="preserve"
         style="font-style:normal;font-weight:normal;font-size:18.30070686px;font-family:'Bitstream Vera Sans';display:inline;fill:#000000;fill-opacity:1;stroke:none;enable-background:new"
         x="16.970737"
         y="21.513618"
         id="context"
         inkscape:label="context"><tspan
           sodipodi:role="line"
           id="tspan2716"
           x="16.970737"
           y="21.513618">apps</tspan></text>
      <text
         inkscape:label="icon-name"
         id="text3021"
         y="21.513618"
         x="149.97073"
         style="font-style:normal;font-variant:normal;font-weight:bold;font-stretch:normal;font-size:18.30070686px;line-height:125%;font-family:'Droid Sans';-inkscape-font-specification:'Droid Sans Bold';text-align:start;writing-mode:lr-tb;text-anchor:start;display:inline;fill:#000000;fill-opacity:1;stroke:none;enable-background:new"
         xml:space="preserve"
         sodipodi:linespacing="125%"><tspan
           y="21.513618"
           x="149.97073"
           id="tspan3023"
           sodipodi:role="line">games</tspan></text>
      <g
         id="g3266"
         transform="matrix(1,0,-0.8,0.8,71.2,17.8)" />
      <rect
         style="display:inline;overflow:visible;visibility:visible;fill:#eeeeec;fill-opacity:1;fill-rule:nonzero;stroke:none;stroke-width:2;marker:none;enable-background:accumulate"
         id="rect40807"
         width="256"
         height="256"
         x="16"
         y="36"
         inkscape:label="48x48"
         inkscape:export-xdpi="90"
         inkscape:export-ydpi="90" />
    </g>
    <g
       inkscape:groupmode="layer"
       id="layer3"
       inkscape:label="hires"
       style="display:inline">
      <path
         style="fill:#ffffff;fill-opacity:1;fill-rule:evenodd;stroke:#ffffff;stroke-width:32;stroke-miterlimit:4;stroke-dasharray:none;stroke-opacity:1;stroke-linejoin:round"
         d="m 88.671875,84 c -14.746139,-0.01674 -32.199157,7.168428 -36.673828,18 -6.225631,15.07 -21.123286,74.81365 -19.929688,106.25391 1.132614,29.83396 6.141676,35.99937 17.664063,35.73632 0.642305,-0.0662 1.257364,-0.1439 1.871094,-0.22461 -0.06593,0.0342 -0.125121,0.0695 -0.191407,0.10352 24.730126,-3.05661 27.237163,-17.61888 44.683594,-30.79687 16.710377,-12.622 23.351337,-13.77147 47.939457,-13.3125 24.58811,-0.45898 31.22126,0.74714 47.93164,13.36914 17.50706,13.22378 19.14779,27.43952 44.35156,30.66211 -0.0145,-0.008 -0.0266,-0.0161 -0.041,-0.0234 0.59257,0.0773 1.1836,0.15693 1.80274,0.2207 11.65988,0.33269 16.71262,-5.73402 17.85156,-35.73437 C 257.12524,176.81365 242.22756,117.07001 236.00195,102 229.77631,86.929997 198.43147,78.930437 184.20703,87.548828 172.50081,94.641461 159.67464,95.572266 144,95.572266 c -15.67464,0 -28.48908,-0.930805 -40.19531,-8.023438 C 99.804061,85.124904 94.442104,84.006548 88.671875,84 Z"
         id="path6424"
         inkscape:connector-curvature="0"
         sodipodi:nodetypes="ssscccscscccssssss" />
      <text
         id="text6430"
         y="131.70105"
         x="136.17685"
         style="font-style:normal;font-weight:normal;font-size:12.43393898px;font-family:'Bitstream Vera Sans';fill:#000000;fill-opacity:1;stroke:none"
         xml:space="preserve"><tspan
           y="131.70105"
           x="136.17685"
           id="tspan6432"
           sodipodi:role="line" /></text>
      <text
         id="text6454"
         y="131.70105"
         x="136.17685"
         style="font-style:normal;font-weight:normal;font-size:12.43393898px;font-family:'Bitstream Vera Sans';fill:#000000;fill-opacity:1;stroke:none"
         xml:space="preserve"><tspan
           y="131.70105"
           x="136.17685"
           id="tspan6456"
           sodipodi:role="line" /></text>
      <text
         xml:space="preserve"
         style="font-style:normal;font-weight:normal;font-size:12.43393898px;font-family:'Bitstream Vera Sans';fill:#000000;fill-opacity:1;stroke:none"
         x="136.17685"
         y="131.70105"
         id="text6486"><tspan
           sodipodi:role="line"
           id="tspan6488"
           x="136.17685"
           y="131.70105" /></text>
      <text
         xml:space="preserve"
         style="font-style:normal;font-weight:normal;font-size:12.43393898px;font-family:'Bitstream Vera Sans';fill:#000000;fill-opacity:1;stroke:none"
         x="136.17685"
         y="131.70105"
         id="text6498"><tspan
           sodipodi:role="line"
           id="tspan6500"
           x="136.17685"
           y="131.70105" /></text>
      <circle
         r="0"
         cy="118.67088"
         cx="198.1983"
         id="circle6682"
         style="display:inline;fill:#000000;fill-opacity:1;fill-rule:evenodd;stroke:none;enable-background:new" />
      <circle
         r="0"
         cy="118.67088"
         cx="232.19455"
         style="display:inline;fill:#000000;fill-opacity:1;fill-rule:evenodd;stroke:none;enable-background:new"
         id="circle6684" />
      <circle
         r="0"
         cy="-101.67276"
         cx="-215.19644"
         transform="scale(-1,-1)"
         style="display:inline;fill:#000000;fill-opacity:1;fill-rule:evenodd;stroke:none;enable-background:new"
         id="circle6686" />
      <circle
         r="0"
         cy="-135.66901"
         cx="-215.19644"
         id="circle6688"
         style="display:inline;fill:#000000;fill-opacity:1;fill-rule:evenodd;stroke:none;enable-background:new"
         transform="scale(-1,-1)" />
      <circle
         style="display:inline;fill:#000000;fill-opacity:1;fill-rule:evenodd;stroke:none;enable-background:new"
         id="circle9615"
         cx="198.1983"
         cy="118.67088"
         r="0" />
      <circle
         id="circle9617"
         style="display:inline;fill:#000000;fill-opacity:1;fill-rule:evenodd;stroke:none;enable-background:new"
         cx="232.19455"
         cy="118.67088"
         r="0" />
      <circle
         id="circle9619"
         style="display:inline;fill:#000000;fill-opacity:1;fill-rule:evenodd;stroke:none;enable-background:new"
         transform="scale(-1,-1)"
         cx="-215.19644"
         cy="-101.67276"
         r="0" />
      <circle
         transform="scale(-1,-1)"
         style="display:inline;fill:#000000;fill-opacity:1;fill-rule:evenodd;stroke:none;enable-background:new"
         id="circle9621"
         cx="-215.19644"
         cy="-135.66901"
         r="0" />
      <path
         id="path5863"
         d="m 88.671875,84 c -14.746139,-0.01674 -32.199157,7.168428 -36.673828,18 -6.225631,15.07 -21.123286,74.81365 -19.929688,106.25391 1.132614,29.83396 6.141676,35.99937 17.664063,35.73632 0.642305,-0.0662 1.257364,-0.1439 1.871094,-0.22461 -0.06593,0.0342 -0.125121,0.0695 -0.191407,0.10352 24.730126,-3.05661 27.237163,-17.61888 44.683594,-30.79687 16.710377,-12.622 23.351337,-13.77147 47.939457,-13.3125 24.58811,-0.45898 31.22126,0.74714 47.93164,13.36914 17.50706,13.22378 19.14779,27.43952 44.35156,30.66211 -0.0145,-0.008 -0.0266,-0.0161 -0.041,-0.0234 0.59257,0.0773 1.1836,0.15693 1.80274,0.2207 11.65988,0.33269 16.71262,-5.73402 17.85156,-35.73437 C 257.12524,176.81365 242.22756,117.07001 236.00195,102 229.77631,86.929997 198.43147,78.930437 184.20703,87.548828 172.50081,94.641461 159.67464,95.572266 144,95.572266 c -15.67464,0 -28.48908,-0.930805 -40.19531,-8.023438 C 99.804061,85.124904 94.442104,84.006548 88.671875,84 Z M 208,92 c 4.41828,0 8,3.581722 8,8 0,4.41828 -3.58172,8 -8,8 -4.41828,0 -8,-3.58172 -8,-8 0,-4.418278 3.58172,-8 8,-8 z m -128,8 c 8.836556,0 16,7.16344 16,16 0,8.83656 -7.163444,16 -16,16 -8.836556,0 -16,-7.16344 -16,-16 0,-8.83656 7.163444,-16 16,-16 z m 64,8 c 6.62742,0 12,5.37258 12,12 0,6.62742 -5.37258,12 -12,12 -6.62742,0 -12,-5.37258 -12,-12 0,-6.62742 5.37258,-12 12,-12 z m 48,0 c 4.41828,0 8,3.58172 8,8 0,4.41828 -3.58172,8 -8,8 -4.41828,0 -8,-3.58172 -8,-8 0,-4.41828 3.58172,-8 8,-8 z m 32,0 c 4.41828,0 8,3.58172 8,8 0,4.41828 -3.58172,8 -8,8 -4.41828,0 -8,-3.58172 -8,-8 0,-4.41828 3.58172,-8 8,-8 z m -16,16 c 4.41828,0 8,3.58172 8,8 0,4.41828 -3.58172,8 -8,8 -4.41828,0 -8,-3.58172 -8,-8 0,-4.41828 3.58172,-8 8,-8 z m -111.333984,16 14.667964,0 c 0.31427,0 0.66602,0.35175 0.66602,0.66602 l 0,14 c 0,0.62854 0.70545,1.33398 1.33398,1.33398 l 14,0 c 0.33314,0 0.66602,0.33288 0.66602,0.66602 l 0,14.66796 C 128,171.66712 127.66712,172 127.33398,172 l -14,0 C 112.70545,172 112,172.70545 112,173.33398 l 0,14 C 112,187.64825 111.64825,188 111.33398,188 l -14.667964,0 C 96.351746,188 96,187.64825 96,187.33398 l 0,-14 C 96,172.70545 95.294556,172 94.666016,172 l -14,0 C 80.35175,172 80,171.64825 80,171.33398 l 0,-14.66796 C 80,156.35175 80.35175,156 80.666016,156 l 14,0 C 95.294556,156 96,155.29456 96,154.66602 l 0,-14 C 96,140.35175 96.351746,140 96.666016,140 Z M 184,148 c 8.83656,0 16,7.16344 16,16 0,8.83656 -7.16344,16 -16,16 -8.83656,0 -16,-7.16344 -16,-16 0,-8.83656 7.16344,-16 16,-16 z"
         style="fill:#000000;fill-opacity:1;fill-rule:evenodd;stroke:none;stroke-width:32;stroke-miterlimit:4;stroke-dasharray:none;stroke-opacity:1"
         inkscape:connector-curvature="0"
         sodipodi:nodetypes="ssscccscscccssssssssssssssssssssssssssssssssssssssssssssssssssssssssssssssssss" />
    </g>
    <g
       inkscape:groupmode="layer"
       id="layer2"
       inkscape:label="small sizes"
       style="display:inline" />
  </g>
</svg>
