<?xml version="1.0" encoding="UTF-8" standalone="no"?>
<!-- Created with Inkscape (http://www.inkscape.org/) -->

<svg
   xmlns:dc="http://purl.org/dc/elements/1.1/"
   xmlns:cc="http://creativecommons.org/ns#"
   xmlns:rdf="http://www.w3.org/1999/02/22-rdf-syntax-ns#"
   xmlns:svg="http://www.w3.org/2000/svg"
   xmlns="http://www.w3.org/2000/svg"
   xmlns:sodipodi="http://sodipodi.sourceforge.net/DTD/sodipodi-0.dtd"
   xmlns:inkscape="http://www.inkscape.org/namespaces/inkscape"
   sodipodi:docname="org.gnome.Games-symbolic.svg"
   height="16.03125"
   id="svg7384"
   inkscape:version="0.91 r13725"
   version="1.1"
   width="16.03125">
  <metadata
     id="metadata90">
    <rdf:RDF>
      <cc:Work
         rdf:about="">
        <dc:format>image/svg+xml</dc:format>
        <dc:type
           rdf:resource="http://purl.org/dc/dcmitype/StillImage" />
        <dc:title>Gnome Symbolic Icon Theme</dc:title>
      </cc:Work>
    </rdf:RDF>
  </metadata>
  <sodipodi:namedview
     inkscape:bbox-paths="true"
     bordercolor="#666666"
     borderopacity="1"
     inkscape:current-layer="layer9"
     inkscape:cx="0.80568524"
     inkscape:cy="11.329028"
     gridtolerance="10"
     inkscape:guide-bbox="true"
     guidetolerance="10"
     id="namedview88"
     inkscape:object-nodes="false"
     inkscape:object-paths="false"
     objecttolerance="10"
     pagecolor="#555753"
     inkscape:pageopacity="1"
     inkscape:pageshadow="2"
     showborder="false"
     showgrid="false"
     showguides="true"
     inkscape:snap-bbox="false"
     inkscape:snap-bbox-midpoints="false"
     inkscape:snap-global="true"
     inkscape:snap-grids="true"
     inkscape:snap-nodes="true"
     inkscape:snap-others="false"
     inkscape:snap-to-guides="true"
     inkscape:window-height="1016"
     inkscape:window-maximized="1"
     inkscape:window-width="1920"
     inkscape:window-x="0"
     inkscape:window-y="27"
     inkscape:zoom="1">
    <inkscape:grid
       empspacing="2"
       enabled="true"
       id="grid4866"
       snapvisiblegridlinesonly="true"
       spacingx="1px"
       spacingy="1px"
       type="xygrid"
       visible="true" />
  </sodipodi:namedview>
  <title
     id="title9167">Gnome Symbolic Icon Theme</title>
  <defs
     id="defs7386" />
  <g
     inkscape:groupmode="layer"
     id="layer9"
     inkscape:label="apps"
     style="display:inline"
     transform="translate(-62.96895,-174.96875)">
    <path
       inkscape:connector-curvature="0"
       d="m 67.034392,176.98408 c -1.053316,-0.001 -2.301472,0.53924 -2.621093,1.35156 -0.444693,1.1302 -1.509079,5.60889 -1.423828,7.9668 0.0809,2.23745 0.438684,2.70137 1.261718,2.68164 0.0459,-0.005 0.09091,-0.0116 0.134766,-0.0176 -0.005,0.002 -0.009,0.006 -0.01367,0.008 1.76646,-0.22922 1.945219,-1.00387 3.191406,-1.99217 1.193617,-0.9466 1.667508,-1.03248 3.423828,-0.99805 1.75631,-0.0344 2.230211,0.0554 3.423828,1.00195 1.250517,0.99175 1.367678,1.74075 3.167969,1.98243 0,0 -0.002,-0.002 -0.002,-0.002 0.0423,0.006 0.08474,0.0108 0.128906,0.0156 0.832855,0.025 1.192087,-0.42977 1.273438,-2.67969 0.08535,-2.35788 -0.977135,-6.83852 -1.421828,-7.96871 -0.444692,-1.13021 -2.685126,-1.73033 -3.701172,-1.08398 -0.836164,0.53192 -1.751467,0.73437 -2.871094,0.73437 -1.119636,0 -2.034929,-0.20244 -2.871093,-0.73437 -0.285762,-0.18179 -0.667916,-0.26514 -1.080079,-0.26563 z m 8.451172,2 a 0.50000062,0.50000102 0 0 1 0.5,0.5 0.50000062,0.50000102 0 0 1 -0.5,0.5 0.50000062,0.50000102 0 0 1 -0.5,-0.5 0.50000062,0.50000102 0 0 1 0.5,-0.5 z m -9,0.25 a 1.2500026,1.2500025 0 0 1 1.25,1.25 1.2500026,1.2500025 0 0 1 -1.25,1.25 1.2500026,1.2500025 0 0 1 -1.25,-1.25 1.2500026,1.2500025 0 0 1 1.25,-1.25 z m 4.5,0.75 a 0.75001009,0.75000152 0 0 1 0.75,0.75 0.75001009,0.75000152 0 0 1 -0.75,0.75 0.75001009,0.75000152 0 0 1 -0.75,-0.75 0.75001009,0.75000152 0 0 1 0.75,-0.75 z m 3.5,0 a 0.50000062,0.50000102 0 0 1 0.5,0.5 0.50000062,0.50000102 0 0 1 -0.5,0.5 0.50000062,0.50000102 0 0 1 -0.5,-0.5 0.50000062,0.50000102 0 0 1 0.5,-0.5 z m 2,0 a 0.50000062,0.50000102 0 0 1 0.5,0.5 0.50000062,0.50000102 0 0 1 -0.5,0.5 0.50000062,0.50000102 0 0 1 -0.5,-0.5 0.50000062,0.50000102 0 0 1 0.5,-0.5 z m -1,1 a 0.50000062,0.50000102 0 0 1 0.5,0.5 0.50000062,0.50000102 0 0 1 -0.5,0.5 0.50000062,0.50000102 0 0 1 -0.5,-0.5 0.50000062,0.50000102 0 0 1 0.5,-0.5 z m -8.458984,1 0.917969,0 c 0.0196,0 0.04102,0.0214 0.04102,0.041 l 0,0.875 c 0,0.0393 0.04469,0.084 0.08398,0.084 l 0.875,0 c 0.0208,0 0.04102,0.0202 0.04102,0.041 l 0,0.91797 c 0,0.0208 -0.02022,0.041 -0.04102,0.041 l -0.875,0 c -0.0393,0 -0.08398,0.0447 -0.08398,0.084 l 0,0.875 c 0,0.0196 -0.02142,0.041 -0.04102,0.041 l -0.917969,0 c -0.0196,0 -0.04102,-0.0214 -0.04102,-0.041 l 0,-0.875 c 0,-0.0393 -0.04468,-0.084 -0.08398,-0.084 l -0.875,0 c -0.0196,0 -0.04102,-0.0214 -0.04102,-0.041 l 0,-0.91797 c 0,-0.0196 0.02142,-0.041 0.04102,-0.041 l 0.875,0 c 0.0393,0 0.08398,-0.0447 0.08398,-0.084 l 0,-0.875 c 0,-0.0196 0.02142,-0.041 0.04102,-0.041 z m 7.458984,0.25 a 1.2500037,1.2499962 0 0 1 1.25,1.25 1.2500037,1.2499962 0 0 1 -1.25,1.25 1.2500037,1.2499962 0 0 1 -1.25,-1.25 1.2500037,1.2499962 0 0 1 1.25,-1.25 z"
       id="path4213"
       style="fill:#bebebe" />
  </g>
</svg>
